<?xml version="1.0" encoding="UTF-8"?>
<!DOCTYPE svg PUBLIC "-//W3C//DTD SVG 1.1//EN" "http://www.w3.org/Graphics/SVG/1.1/DTD/svg11.dtd">
<svg xmlns="http://www.w3.org/2000/svg" version="1.1" width="512px" height="512px" style="shape-rendering:geometricPrecision; text-rendering:geometricPrecision; image-rendering:optimizeQuality; fill-rule:evenodd; clip-rule:evenodd" xmlns:xlink="http://www.w3.org/1999/xlink">
<g><path style="opacity:0.957" fill="#221714" d="M 247.5,91.5 C 252.635,90.4262 256.468,92.0928 259,96.5C 259.667,110.167 259.667,123.833 259,137.5C 256.459,142.069 252.625,143.569 247.5,142C 245.714,141.215 244.214,140.049 243,138.5C 242.333,124.167 242.333,109.833 243,95.5C 244.397,93.9297 245.897,92.5964 247.5,91.5 Z"/></g>
<g><path style="opacity:0.954" fill="#221714" d="M 168.5,112.5 C 172.548,112.441 175.715,114.108 178,117.5C 182.601,126.425 187.601,135.092 193,143.5C 198.275,154.803 194.775,159.97 182.5,159C 175.958,149.419 169.791,139.586 164,129.5C 159.461,121.937 160.961,116.27 168.5,112.5 Z"/></g>
<g><path style="opacity:0.953" fill="#221714" d="M 329.5,112.5 C 338.034,112.861 341.534,117.194 340,125.5C 333.563,136.931 326.73,148.097 319.5,159C 309.784,160.946 305.617,157.112 307,147.5C 312.667,137.5 318.333,127.5 324,117.5C 325.73,115.598 327.563,113.931 329.5,112.5 Z"/></g>
<g><path style="opacity:0.982" fill="#231815" d="M 237.5,162.5 C 285.229,159.104 320.062,178.438 342,220.5C 346.729,232.084 349.896,244.084 351.5,256.5C 367.506,266.843 379.172,280.843 386.5,298.5C 418.853,311.203 433.353,334.869 430,369.5C 423.382,396.452 406.549,412.952 379.5,419C 324.833,419.667 270.167,419.667 215.5,419C 182.353,412.854 161.853,393.354 154,360.5C 151.361,342.866 154.195,326.199 162.5,310.5C 147.111,276.731 147.944,243.398 165,210.5C 182.132,183.866 206.299,167.866 237.5,162.5 Z"/></g>
<g><path style="opacity:0.953" fill="#221714" d="M 106.5,172.5 C 109.187,172.336 111.854,172.503 114.5,173C 125.931,179.437 137.097,186.27 148,193.5C 150,203.164 146.167,207.331 136.5,206C 125.67,200.086 115.003,193.919 104.5,187.5C 100.462,181.957 101.129,176.957 106.5,172.5 Z"/></g>
<g><path style="opacity:0.958" fill="#221714" d="M 387.5,172.5 C 397.306,171.797 401.139,176.13 399,185.5C 388.418,193.212 377.251,200.045 365.5,206C 355.888,207.383 352.054,203.216 354,193.5C 365.074,186.241 376.24,179.241 387.5,172.5 Z"/></g>
<g><path style="opacity:1" fill="#f7b52c" d="M 238.5,179.5 C 282.904,176.6 313.404,195.6 330,236.5C 330.834,239.669 331.668,242.836 332.5,246C 332.167,246.833 331.833,247.667 331.5,248.5C 295.488,239.727 265.488,249.394 241.5,277.5C 216.41,272.31 194.41,278.31 175.5,295.5C 161.112,258.656 168.112,226.489 196.5,199C 208.929,188.95 222.929,182.45 238.5,179.5 Z"/></g>
<g><path style="opacity:0.957" fill="#221714" d="M 85.5,253.5 C 99.1707,253.333 112.837,253.5 126.5,254C 131.069,256.541 132.569,260.375 131,265.5C 130.215,267.286 129.049,268.786 127.5,270C 113.167,270.667 98.8333,270.667 84.5,270C 80.6729,266.692 79.5063,262.526 81,257.5C 82.3968,255.93 83.8968,254.596 85.5,253.5 Z"/></g>
<g><path style="opacity:0.958" fill="#221714" d="M 375.5,253.5 C 389.171,253.333 402.837,253.5 416.5,254C 421.069,256.541 422.569,260.375 421,265.5C 420.215,267.286 419.049,268.786 417.5,270C 403.167,270.667 388.833,270.667 374.5,270C 368.953,264.032 369.287,258.532 375.5,253.5 Z"/></g>
<g><path style="opacity:1" fill="#fefefe" d="M 295.5,261.5 C 321.836,258.33 343.669,266.663 361,286.5C 366.766,294.868 371.599,303.701 375.5,313C 407.732,322.302 419.566,343.135 411,375.5C 404.019,391.571 391.852,400.738 374.5,403C 321.833,403.667 269.167,403.667 216.5,403C 190.547,397.381 175.047,381.548 170,355.5C 168.749,317.336 187.082,296.003 225,291.5C 232.512,292.615 240.012,293.449 247.5,294C 253.833,287.667 260.167,281.333 266.5,275C 275.496,268.833 285.162,264.333 295.5,261.5 Z"/></g>
<g><path style="opacity:0.958" fill="#221714" d="M 136.5,317.5 C 146.157,316.658 149.99,320.991 148,330.5C 146.833,331.667 145.667,332.833 144.5,334C 134.5,339.667 124.5,345.333 114.5,351C 106.854,353.179 102.521,350.346 101.5,342.5C 102.15,339.345 103.817,336.845 106.5,335C 116.727,329.392 126.727,323.559 136.5,317.5 Z"/></g>
</svg>
